HIERARCHY
ROOT hip
{
	OFFSET 0.000000 0.000000 0.000000 
	CHANNELS 6 Xposition Yposition Zposition Xrotation Zrotation Yrotation
	JOINT abdomen
	{
		OFFSET 0.000000 3.402643 0.000000 
		CHANNELS 3 Xrotation Zrotation Yrotation
		JOINT chest
		{
			OFFSET 0.000000 8.438565 -0.680529 
			CHANNELS 3 Xrotation Zrotation Yrotation
			JOINT neck
			{
				OFFSET 0.000000 10.207942 -0.272212 
				CHANNELS 3 Xrotation Zrotation Yrotation
				JOINT head
				{
					OFFSET 0.000000 3.130431 0.000000 
					CHANNELS 3 Xrotation Zrotation Yrotation
					End Site
					{
						OFFSET 0.000000 3.130435 0.000000 
					}
				}
			}
			JOINT lCollar
			{
				OFFSET 3.470700 6.669187 -0.816635 
				CHANNELS 3 Yrotation Zrotation Xrotation
				JOINT lShldr
				{
					OFFSET 3.198488 0.000000 0.000000 
					CHANNELS 3 Zrotation Yrotation Xrotation
					JOINT lForeArm
					{
						OFFSET 10.139888 0.000000 0.000000 
						CHANNELS 3 Yrotation Zrotation Xrotation
						JOINT lHand
						{
							OFFSET 8.370511 0.000000 0.000000 
							CHANNELS 3 Zrotation Yrotation Xrotation
							End Site
							{
								OFFSET 4.083176 0.000000 0.000000 
							}
						}
					}
				}
			}
			JOINT rCollar
			{
				OFFSET -3.470700 6.669187 -0.816635 
				CHANNELS 3 Yrotation Zrotation Xrotation
				JOINT rShldr
				{
					OFFSET -3.198488 0.000000 0.000000 
					CHANNELS 3 Zrotation Yrotation Xrotation
					JOINT rForeArm
					{
						OFFSET -10.139888 0.000000 0.000000 
						CHANNELS 3 Yrotation Zrotation Xrotation
						JOINT rHand
						{
							OFFSET -8.370511 0.000000 0.000000 
							CHANNELS 3 Zrotation Yrotation Xrotation
							End Site
							{
								OFFSET -4.083176 0.000000 0.000000 
							}
						}
					}
				}
			}
		}
	}
	JOINT lThigh
	{
		OFFSET 5.308129 -1.633274 1.361059 
		CHANNELS 3 Xrotation Zrotation Yrotation
		JOINT lShin
		{
			OFFSET -2.041588 -20.007561 0.000000 
			CHANNELS 3 Xrotation Zrotation Yrotation
			JOINT lFoot
			{
				OFFSET 0.000000 -19.190928 -1.224953 
				CHANNELS 3 Xrotation Yrotation Zrotation
				End Site
				{
					OFFSET 0.000000 -2.449906 4.627600 
				}
			}
		}
	}
	JOINT rThigh
	{
		OFFSET -5.308129 -1.633274 1.361059 
		CHANNELS 3 Xrotation Zrotation Yrotation
		JOINT rShin
		{
			OFFSET 2.041588 -20.007561 0.000000 
			CHANNELS 3 Xrotation Zrotation Yrotation
			JOINT rFoot
			{
				OFFSET 0.000000 -19.190928 -1.224953 
				CHANNELS 3 Xrotation Yrotation Zrotation
				End Site
				{
					OFFSET 0.000000 -2.449906 4.627600 
				}
			}
		}
	}
}
MOTION
Frames: 15
Frame Time: 0.033333
63.357105 30.859833 6.089115 55.722095 4.745605 7.388798 -7.738861 -5.987231 8.591675 0.000000 0.000000 0.000000 -46.242199 -18.115345 -69.083427 0.000000 0.000000 0.000000 0.000000 0.000000 0.000000 -38.067268 12.465310 92.439995 -59.254536 42.960167 48.095570 62.508373 -15.048641 8.185282 0.000000 0.000000 0.000000 61.929569 -22.747131 65.580551 79.186981 -31.953650 58.983040 5.875172 8.721540 30.261341 -125.756531 34.558895 -11.227250 81.121338 -14.558980 2.460850 -12.322010 -28.740938 -26.500357 -138.314346 -22.571957 54.162083 89.660843 25.057425 -15.412439 -7.970568 1.705934 18.319508 
66.794434 32.281792 7.488681 48.329014 10.539494 11.276857 -8.099579 -13.725284 8.072901 0.000000 0.000000 0.000000 -40.081493 -18.818163 -65.764008 0.000000 0.000000 0.000000 0.000000 0.000000 0.000000 -35.002838 7.914704 90.863319 -54.162586 42.215847 43.641541 47.773468 -15.294081 0.666747 0.000000 0.000000 0.000000 70.695152 -11.788180 68.506088 60.056564 -32.618835 44.725525 10.790938 13.109412 22.003422 -103.929878 29.958326 1.872193 78.441574 -16.491478 1.536338 -16.320732 -27.726372 -23.056061 -127.018158 -28.742062 58.214577 79.592377 19.765881 -17.894430 -6.741576 -0.211804 16.244545 
71.105095 33.826912 10.310206 37.072861 14.571363 10.196338 -6.346226 -17.237408 8.374342 0.000000 0.000000 0.000000 -32.348183 -17.936995 -61.770325 0.000000 0.000000 0.000000 0.000000 0.000000 0.000000 -34.746117 3.236685 90.963860 -50.934643 39.968700 40.330925 31.498692 -16.250677 -5.098414 0.000000 0.000000 0.000000 73.902740 0.214182 76.383514 37.160873 -27.313749 27.434216 12.692307 20.692900 9.037294 -85.548523 24.361118 8.420930 78.806610 -14.722555 0.016003 -20.858864 -25.024731 -20.022926 -108.013527 -39.785984 50.028664 65.984215 9.219145 -17.969351 -3.846084 -0.270723 15.289001 
73.187660 35.181694 13.378057 22.657537 14.927320 6.501717 -3.182263 -16.189850 9.132349 0.000000 0.000000 0.000000 -21.105589 -14.424509 -57.315880 0.000000 0.000000 0.000000 0.000000 0.000000 0.000000 -38.708549 -5.358904 94.275841 -44.639717 35.231392 35.089390 13.270719 -19.668255 -11.368262 0.000000 0.000000 0.000000 74.856133 8.914450 87.236916 19.649057 -16.700409 14.304184 9.326134 28.841354 -7.838987 -65.934456 19.656509 11.136648 78.510498 -11.951182 0.233458 -25.514656 -22.890835 -18.309700 -76.106354 -48.709385 26.895683 48.494675 -3.750181 -12.419444 8.362503 1.490988 11.411889 
74.900719 37.510571 16.423513 8.773308 11.941997 -0.877147 1.395626 -11.619739 9.802250 0.000000 0.000000 0.000000 -9.152998 -10.207270 -52.046841 0.000000 0.000000 0.000000 0.000000 0.000000 0.000000 -45.561157 -16.525393 100.924568 -37.153526 29.932013 29.397348 -0.187066 -25.020891 -18.743763 0.000000 0.000000 0.000000 72.765884 11.495866 95.132225 13.751707 -12.036629 7.244996 5.649195 32.279015 -20.726639 -45.415009 16.578869 13.252112 72.486687 -6.803885 0.344820 -28.285219 -19.986698 -18.252680 -44.294144 -45.525383 10.021249 33.988304 -10.204037 -6.729819 35.242615 4.810245 2.743322 
75.594902 40.007397 17.991024 -3.873125 7.200191 -6.486174 11.063919 -7.211478 10.543264 0.000000 0.000000 0.000000 -4.756496 -7.913936 -45.006214 0.000000 0.000000 0.000000 0.000000 0.000000 0.000000 -50.060711 -25.637932 103.015419 -34.514778 29.803036 24.821346 -4.907894 -27.081219 -22.219555 0.000000 0.000000 0.000000 67.202911 14.163501 93.458984 17.948212 -14.582035 8.306254 5.151109 31.091663 -24.526020 -24.706614 13.564044 15.763802 61.068279 -2.036280 1.011998 -27.098951 -15.135734 -16.459785 -32.609459 -36.342125 10.084571 42.006241 -8.375560 -10.864383 41.020592 5.699247 1.625788 
75.919609 42.470634 18.360512 -14.425297 3.861666 -6.518672 23.192450 -4.923677 11.243119 0.000000 0.000000 0.000000 -5.987717 -6.695829 -33.964176 0.000000 0.000000 0.000000 0.000000 0.000000 0.000000 -50.841549 -30.023077 96.749886 -38.002350 33.913647 22.652529 -6.226465 -25.768404 -21.447569 0.000000 0.000000 0.000000 59.565758 17.099661 88.045853 26.724207 -21.297485 13.313789 8.361897 28.574108 -21.418961 -6.346756 8.883662 18.345798 45.605106 1.698349 -0.095128 -22.817097 -9.035830 -9.706737 -28.248726 -28.775911 -1.359482 55.873535 -8.828284 -10.637352 33.901096 5.279810 2.991378 
76.109940 43.724644 18.013420 -16.884203 1.577312 -7.737071 27.058178 -3.352445 11.249834 0.000000 0.000000 0.000000 -7.574790 -5.805924 -21.807653 0.000000 0.000000 0.000000 0.000000 0.000000 0.000000 -50.289845 -27.855883 88.508446 -47.734112 39.228325 25.879280 -5.498911 -23.005230 -19.225933 0.000000 0.000000 0.000000 54.634884 16.674706 83.143776 34.740734 -27.501492 16.653620 10.818893 26.899235 -18.309137 0.087375 6.824266 18.650156 36.716930 2.699194 -1.968845 -19.295298 -4.712348 -4.942606 -27.917013 -20.885984 -7.166995 62.903500 -8.144948 -11.065485 29.350805 5.582056 6.177538 
76.501816 44.340450 17.621542 -14.942027 0.348067 -8.086085 24.779848 -2.301203 12.109309 0.000000 0.000000 0.000000 -9.156419 -5.803369 -12.674059 0.000000 0.000000 0.000000 0.000000 0.000000 0.000000 -51.104053 -21.404419 81.340172 -59.360909 42.048393 32.403709 -3.337796 -21.560123 -19.378611 0.000000 0.000000 0.000000 53.311852 10.184045 72.934189 42.372276 -31.045645 19.961309 10.440483 26.657593 -18.510662 0.301624 6.091181 17.158825 31.631029 2.026648 -2.076767 -16.498241 -2.790948 -2.509752 -31.314293 -10.711844 5.756236 66.995918 3.601667 -16.765919 25.183222 6.476419 11.089519 
76.792946 44.844296 17.386415 -11.793442 -0.367395 -8.095911 19.686108 -2.121994 12.997297 0.000000 0.000000 0.000000 -8.630855 -4.764974 -7.389608 0.000000 0.000000 0.000000 0.000000 0.000000 0.000000 -53.375660 -10.659839 76.492996 -66.028641 42.538078 36.199417 0.015660 -21.510218 -22.454580 0.000000 0.000000 0.000000 57.139542 1.428713 63.061634 45.858253 -33.036877 21.058733 8.683200 26.475151 -20.005983 -0.908521 4.754396 13.556107 25.917263 1.285359 -0.728943 -13.306541 -0.272357 1.038926 -29.660967 -1.456693 12.034287 63.283199 6.163619 -13.481056 15.976417 6.513448 15.331852 
77.039253 45.348141 17.632736 -7.569773 -0.542762 -7.031580 10.893795 -2.123486 12.821282 0.000000 0.000000 0.000000 -5.462721 -2.289180 -4.056126 0.000000 0.000000 0.000000 0.000000 0.000000 0.000000 -55.554741 4.570122 72.986015 -66.351395 42.426311 35.028313 1.587078 -23.207043 -26.159479 0.000000 0.000000 0.000000 64.489334 -9.044828 53.944946 46.704254 -33.336269 21.479263 6.559722 27.048803 -21.673141 -1.558852 2.843269 8.526775 18.609005 1.327253 1.390930 -10.363414 1.972763 4.020416 -24.162813 4.303376 10.296241 51.923378 2.416431 -6.697565 6.797304 3.060094 14.702896 
77.285591 45.818394 18.158974 -2.996779 -1.069655 -5.284285 1.930736 -1.249109 12.473653 0.000000 0.000000 0.000000 -1.948437 -1.247864 -3.350515 0.000000 0.000000 0.000000 0.000000 0.000000 0.000000 -57.163776 17.439672 70.116936 -62.739227 41.784561 32.243656 2.264356 -24.211042 -28.749756 0.000000 0.000000 0.000000 69.634781 -18.260204 46.058414 46.027763 -31.218346 23.237354 4.530013 27.610346 -24.995983 -3.109340 2.182572 4.497014 13.651316 1.862521 2.985969 -8.262955 2.083022 5.185720 -21.058733 5.739343 10.300715 40.109764 2.245373 -10.896917 1.357314 1.518129 8.972545 
77.621498 46.288651 18.394100 0.520931 -2.113839 -4.055735 -5.466814 0.349985 14.394855 0.000000 0.000000 0.000000 0.522452 -0.710060 -5.107876 0.000000 0.000000 0.000000 0.000000 0.000000 0.000000 -60.006081 27.022329 65.533867 -55.293495 40.052689 27.148256 3.893952 -24.137623 -31.571812 0.000000 0.000000 0.000000 73.677643 -25.445047 40.176617 41.890530 -29.476774 22.391472 3.288924 27.793701 -26.498753 -4.538101 2.566495 2.491612 9.985154 2.752828 4.528336 -6.801598 0.874907 4.035743 -17.350840 6.072620 10.038944 27.398560 0.989687 -13.229481 -0.280913 0.503790 5.982972 
78.450012 46.557365 18.461283 3.158226 -2.653026 -2.825566 -9.848452 1.052366 15.813370 0.000000 0.000000 0.000000 1.569747 -0.533059 -7.041346 0.000000 0.000000 0.000000 0.000000 0.000000 0.000000 -63.130386 32.025726 60.045258 -46.970905 37.365181 21.850807 5.216915 -23.745375 -34.415932 0.000000 0.000000 0.000000 76.667824 -28.700985 36.599987 35.276524 -27.667686 18.453749 1.695809 27.791267 -28.037403 -5.635903 2.408155 0.436232 7.211344 3.298788 5.298712 -6.087214 -2.313186 1.270955 -15.071886 6.245670 8.770782 18.447693 -0.393132 -13.932550 -0.231027 0.337124 4.424157 
79.401726 46.714119 18.237349 4.740194 -2.654985 -1.769751 -12.835675 1.225399 16.693464 0.000000 0.000000 0.000000 2.975349 -0.183698 -8.095755 0.000000 0.000000 0.000000 0.000000 0.000000 0.000000 -64.559814 33.555447 57.766487 -38.359146 34.270435 16.181253 6.301872 -22.655182 -37.825409 0.000000 0.000000 0.000000 79.166489 -28.959641 33.890423 27.078894 -24.477852 12.786969 0.287233 27.044573 -30.519093 -6.151637 1.532634 -2.011615 4.262046 3.610151 4.083018 -4.722337 -3.274130 -0.030054 -14.168003 5.887558 6.982323 13.250002 -1.457694 -13.667513 0.437505 0.569890 2.247298 
